<?xml version="1.0" encoding="iso-8859-1"?>
<!-- Uploaded to: SVG Repo, www.svgrepo.com, Generator: SVG Repo Mixer Tools -->
<svg fill="#000000" height="800px" width="800px" version="1.1" id="Capa_1" xmlns="http://www.w3.org/2000/svg" xmlns:xlink="http://www.w3.org/1999/xlink" 
	 viewBox="0 0 53.389 53.389" xml:space="preserve">
<g>
	<path d="M44.707,29.598c-0.391-0.391-1.023-0.391-1.414,0s-0.391,1.023,0,1.414l6.682,6.682H38.414l-11-11l11-11h11.561
		l-6.682,6.682c-0.391,0.391-0.391,1.023,0,1.414c0.195,0.195,0.451,0.293,0.707,0.293s0.512-0.098,0.707-0.293l8.389-8.389
		c0.391-0.391,0.391-1.023,0-1.414l-8.389-8.389c-0.391-0.391-1.023-0.391-1.414,0c-0.391,0.391-0.391,1.023,0,1.414l6.682,6.682H38
		c-0.265,0-0.52,0.106-0.707,0.293L26,25.28L14.707,13.987C14.519,13.8,14.265,13.694,14,13.694H1c-0.552,0-1,0.448-1,1s0.448,1,1,1
		h12.586l11,11l-11,11H1c-0.552,0-1,0.448-1,1s0.448,1,1,1h13c0.265,0,0.519-0.105,0.707-0.293L26,28.109l11.293,11.293
		c0.188,0.188,0.442,0.293,0.707,0.293h11.975l-6.682,6.682c-0.391,0.391-0.391,1.023,0,1.414c0.195,0.195,0.451,0.293,0.707,0.293
		s0.512-0.098,0.707-0.293l8.389-8.389c0.391-0.391,0.391-1.023,0-1.414L44.707,29.598z"/>
</g>
</svg>